<?xml version="1.0" encoding="UTF-8"?>
<svg width="614px" height="383px" viewBox="0 0 614 383" version="1.1" xmlns="http://www.w3.org/2000/svg" xmlns:xlink="http://www.w3.org/1999/xlink">
    <title>cssday-logo</title>
    <g id="Page-1" stroke="none" stroke-width="1" fill="none" fill-rule="evenodd">
        <g id="cssday-logo" fill="#FFFFFF" fill-rule="nonzero">
            <g id="Group">
                <rect id="Rectangle" x="0" y="0" width="184" height="46" rx="7"></rect>
                <rect id="Rectangle" x="0" y="55" width="46" height="122" rx="7"></rect>
                <rect id="Rectangle" x="57" y="131" width="127" height="46" rx="7"></rect>
            </g>
            <g id="Group" transform="translate(215.000000, 0.000000)">
                <rect id="Rectangle" x="0" y="0" width="46" height="110" rx="7"></rect>
                <rect id="Rectangle" x="56" y="0" width="128" height="46" rx="7"></rect>
                <rect id="Rectangle" x="60" y="65" width="64" height="46" rx="7"></rect>
                <rect id="Rectangle" x="138" y="65" width="46" height="112" rx="7"></rect>
                <rect id="Rectangle" x="0" y="131" width="128" height="46" rx="7"></rect>
            </g>
            <g id="Group" transform="translate(430.000000, 0.000000)">
                <rect id="Rectangle" x="0" y="0" width="46" height="110" rx="7"></rect>
                <rect id="Rectangle" x="56" y="0" width="128" height="46" rx="7"></rect>
                <rect id="Rectangle" x="60" y="65" width="64" height="46" rx="7"></rect>
                <rect id="Rectangle" x="138" y="65" width="46" height="112" rx="7"></rect>
                <rect id="Rectangle" x="0" y="131" width="128" height="46" rx="7"></rect>
            </g>
            <g id="Group" transform="translate(0.000000, 206.000000)">
                <rect id="Rectangle" x="0" y="0" width="127" height="46" rx="7"></rect>
                <rect id="Rectangle" x="138" y="0" width="46" height="122" rx="7"></rect>
                <rect id="Rectangle" x="0" y="55" width="46" height="122" rx="7"></rect>
                <rect id="Rectangle" x="57" y="131" width="127" height="46" rx="7"></rect>
            </g>
            <g id="Group" transform="translate(215.000000, 206.000000)">
                <rect id="Rectangle" x="0" y="0" width="128" height="46" rx="7"></rect>
                <rect id="Rectangle" x="138" y="0" width="46" height="177" rx="7"></rect>
                <rect id="Rectangle" x="0" y="55" width="46" height="122" rx="7"></rect>
                <rect id="Rectangle" x="63" y="74" width="64" height="46" rx="7"></rect>
            </g>
            <g id="Group" transform="translate(430.000000, 206.000000)">
                <rect id="Rectangle" x="0" y="0" width="46" height="110" rx="7"></rect>
                <rect id="Rectangle" x="138" y="0" width="46" height="177" rx="7"></rect>
                <rect id="Rectangle" x="64" y="64" width="64" height="46" rx="7"></rect>
                <rect id="Rectangle" x="21" y="131" width="107" height="46" rx="7"></rect>
            </g>
        </g>
    </g>
</svg>